<svg xmlns="http://www.w3.org/2000/svg" viewBox="0 0 512 512" width="512" height="512">
  <title>メイシル favicon 案C</title>
  <desc>ブルーの角丸正方形に、カードが上向き矢印になる白抜きシンボルを配置したfavicon。</desc>
  <!-- 地: エレクトリックブルー（LINEアイコン規定「地 #2563EB × シンボル白抜き」を流用） -->
  <rect width="512" height="512" rx="112" fill="#2563EB"/>
  <!-- シンボル（カード→上向き矢印・白抜き・フラット1色） -->
  <g transform="translate(256,268) scale(1.32) translate(-256,-244)">
    <path fill="#FFFFFF" fill-rule="evenodd" d="
      M164 204 L348 204 Q388 204 388 244 L388 324 Q388 364 348 364 L164 364 Q124 364 124 324 L124 244 Q124 204 164 204 Z
      M246.9 137.2 Q256 124 265.1 137.2 L316.9 212.6 Q322 220 313 220 L293 220 Q284 220 284 229 L284 306 A28 28 0 0 1 228 306 L228 229 Q228 220 219 220 L199 220 Q190 220 195.1 212.6 Z"/>
  </g>
</svg>
